<?xml version="1.0" encoding="utf-8"?>
<!-- Generator: Adobe Illustrator 15.1.0, SVG Export Plug-In . SVG Version: 6.00 Build 0)  -->
<!DOCTYPE svg PUBLIC "-//W3C//DTD SVG 1.1//EN" "http://www.w3.org/Graphics/SVG/1.1/DTD/svg11.dtd">
<svg version="1.1" id="logoCanvas" xmlns="http://www.w3.org/2000/svg" xmlns:xlink="http://www.w3.org/1999/xlink" x="0px" y="0px"
	 width="200px" height="200px" viewBox="0 0 200 200" enable-background="new 0 0 200 200" xml:space="preserve">
<path id="handle" d="M165.143,167.062l0.135-0.045l-15.348-22.565l-0.838,0.569L92.287,62.15l-8.688-12.677l-1.768,1.213
	l7.928,13.132l56.827,82.907l-0.832,0.566l14.355,21.113c1.971,2.896,1.215,6.854-1.68,8.826c-1.031,0.701-2.232,1.078-3.479,1.095
	c-2.146,0.03-4.146-1.007-5.354-2.775c-0.646-0.952-1.021-2.057-1.09-3.196l-0.076-1.295l0,0c-0.018-1.125-1.197-1.83-2.549-1.812
	c-1.354,0.019-2.511,0.979-2.494,2.104l0.076,1.299c0.122,2.053,0.797,4.039,1.957,5.74c2.157,3.174,5.747,5.037,9.598,4.985
	c2.232-0.026,4.396-0.71,6.244-1.969C165.969,178.21,167.525,172.057,165.143,167.062z"/>
<path fill="none" stroke="#231F20" stroke-miterlimit="10" d="M47.33,144.234l17.745,7.271l42.419-12.635
	c0,0,42.904-29.707,45.234-29.279l13.754-16.106l14.728-17.242c0,0,1.729-18.586,2.084-20.463"/>
<path fill="none" stroke="#231F20" stroke-width="0.5" stroke-miterlimit="10" d="M65.074,151.505c0,0,1.446-34.276,5.135-38.756"/>
<path fill="none" stroke="#231F20" stroke-width="0.5" stroke-miterlimit="10" d="M107.493,138.87c0,0-9.808-45.208-10.26-49.14"/>
<path fill="none" stroke="#231F20" stroke-width="0.5" stroke-miterlimit="10" d="M152.432,109.02c0,0-33.687-35.292-43.861-36.832"
	/>
<path fill="none" stroke="#231F20" stroke-width="0.5" stroke-miterlimit="10" d="M181.096,75.799c0,0-24.02-16.819-28.801-16.75"/>
<polygon fill="#231F20" points="65.192,153.982 64.652,153.943 64.6,150.941 65.642,151.02 "/>
<polygon fill="#231F20" points="46.188,146.186 45.765,145.852 47.415,143.34 48.231,143.991 "/>
<polygon fill="#231F20" points="108.57,141.415 108.05,141.564 106.962,138.766 107.964,138.477 "/>
<polygon fill="#231F20" points="154.214,111.695 153.752,111.977 151.966,109.561 152.859,109.02 "/>
<polygon fill="#231F20" points="183.589,77.229 183.277,77.672 180.672,76.182 181.271,75.327 "/>
<polygon fill="#231F20" points="186.027,56.076 185.922,56.607 182.938,56.287 183.143,55.264 "/>
<polygon fill="none" stroke="#231F20" stroke-width="0.5" stroke-linejoin="round" stroke-miterlimit="10" points="93.381,91.356 
	111.004,90.603 114.25,76.552 "/>
<text id="name" transform="matrix(1 0 0 1 31.5 26.5)" font-family="'MyriadPro-Regular'" font-size="12">company name</text>
<path id="cloth" fill="#231F20" stroke="#231F20" stroke-linejoin="round" stroke-miterlimit="10" d="M47.33,144.234
	c0,0,2.135-35.486,10.409-46.812c8.275-11.32,14.121-17.813,14.529-20.142c0.408-2.329,3.483-7.224,9.193-8.806
	c5.71-1.583,12.015-6.819,14.104-8.671s9.262-8.159,14.31-6.733c5.048,1.428,13.357-0.275,16.748-2.179
	c3.393-1.905,24.21-5.732,56.673,4.883c0,0-25.915,5.019-35.502,7.009c-9.586,1.99-30.812,14.351-37.538,18.653
	c-6.727,4.302-33.562,25.417-33.562,25.417S50.303,138.37,47.33,144.234z"/>
</svg>
